<?xml version="1.0" standalone="no"?>
<!DOCTYPE svg PUBLIC "-//W3C//DTD SVG 20010904//EN"
 "http://www.w3.org/TR/2001/REC-SVG-20010904/DTD/svg10.dtd">
<svg version="1.0" xmlns="http://www.w3.org/2000/svg"
 width="1024.000000pt" height="1024.000000pt" viewBox="0 0 1024.000000 1024.000000"
 preserveAspectRatio="xMidYMid meet">
<metadata>
Created by potrace 1.11, written by Peter Selinger 2001-2013
</metadata>
<g transform="translate(0.000000,1024.000000) scale(0.100000,-0.100000)"
fill="#000000" stroke="none">
<path d="M4090 8281 l-1001 -1001 1001 -1000 1000 -1001 1001 1000 1000 1001
-1000 1000 -1001 1001 -1000 -1000z"/>
<path d="M1917 6119 l-997 -999 1000 -1000 1000 -1000 500 500 c275 275 725
725 1000 1000 l500 500 -1000 1000 c-550 550 -1001 1000 -1002 999 -2 0 -452
-450 -1001 -1000z"/>
<path d="M6287 6119 l-998 -999 1001 -1000 1000 -1001 1000 1001 1001 1000
-988 987 c-544 544 -995 993 -1003 999 -12 9 -195 -169 -1013 -987z"/>
<path d="M4090 3960 l-1001 -1000 1001 -1000 1000 -1001 1001 1000 1000 1001
-502 502 c-277 277 -727 727 -1001 1001 l-498 498 -1000 -1001z"/>
</g>
</svg>
