<?xml version="1.0" standalone="no"?>
<!DOCTYPE svg PUBLIC "-//W3C//DTD SVG 20010904//EN"
 "http://www.w3.org/TR/2001/REC-SVG-20010904/DTD/svg10.dtd">
<svg version="1.0" xmlns="http://www.w3.org/2000/svg"
 width="1024.000000pt" height="1024.000000pt" viewBox="0 0 1024.000000 1024.000000"
 preserveAspectRatio="xMidYMid meet">
<metadata>
Created by potrace 1.11, written by Peter Selinger 2001-2013
</metadata>
<g transform="translate(0.000000,1024.000000) scale(0.100000,-0.100000)"
fill="#000000" stroke="none">
<path d="M3877 7028 c-343 -39 -681 -368 -821 -799 -18 -57 -37 -126 -41 -154
-5 -27 -9 -52 -10 -55 -1 -3 -5 -34 -9 -70 -4 -36 -9 -76 -11 -90 -7 -45 -15
-124 -20 -180 -3 -30 -7 -70 -9 -90 -3 -19 -8 -60 -11 -90 -4 -30 -8 -66 -10
-80 -2 -14 -6 -56 -10 -95 -3 -38 -8 -83 -10 -100 -2 -16 -9 -75 -15 -130 -13
-114 -19 -175 -25 -225 -2 -19 -9 -80 -15 -135 -6 -55 -13 -116 -15 -135 -2
-19 -7 -62 -11 -95 -3 -33 -8 -68 -10 -77 -1 -10 3 -18 10 -18 15 0 192 73
203 83 3 4 7 19 9 34 6 61 15 150 19 178 3 17 7 53 9 80 23 231 85 398 216
580 125 174 259 270 374 270 78 0 100 -25 100 -117 0 -88 -24 -301 -49 -438
-2 -14 -7 -47 -10 -75 -3 -27 -7 -61 -10 -75 -3 -14 -8 -47 -11 -75 -3 -27 -8
-61 -10 -75 -1 -14 -6 -78 -10 -143 -8 -145 6 -195 62 -222 82 -39 190 17 349
180 84 86 125 152 125 202 0 26 -25 64 -33 52 -2 -2 -24 -38 -50 -79 -60 -98
-113 -156 -159 -175 -44 -18 -66 -11 -74 22 -7 25 3 239 10 252 2 3 7 31 10
61 4 30 8 69 11 85 11 67 15 92 20 140 3 28 8 59 10 71 3 11 7 43 10 70 3 27
13 91 21 143 32 199 22 317 -30 369 -23 23 -36 27 -92 29 -69 1 -83 -2 -174
-46 -155 -74 -419 -327 -538 -515 -11 -18 -12 -11 -7 51 3 39 8 82 10 95 2 13
6 52 10 88 10 94 12 108 19 175 4 33 9 80 12 105 5 51 13 118 19 170 2 19 6
60 10 90 42 405 123 603 290 718 17 11 60 30 95 42 55 19 79 21 160 17 52 -3
104 -8 116 -12 16 -5 42 14 130 99 60 58 102 106 94 107 -8 0 -24 2 -35 5 -43
8 -123 9 -188 2z"/>
<path d="M7344 6613 l1 -417 43 -2 c23 0 46 4 49 9 3 6 7 51 7 101 1 81 4 94
25 119 14 15 29 27 35 27 6 0 45 -37 86 -82 164 -180 158 -175 220 -172 30 1
58 2 62 3 4 1 -7 16 -25 35 -130 136 -252 270 -255 280 -1 6 56 69 128 141 71
71 130 132 130 136 0 3 -27 5 -59 4 l-59 -3 -144 -148 -145 -148 1 255 c1 140
0 260 -2 267 -3 7 -22 12 -52 12 l-47 0 1 -417z"/>
<path d="M5139 6992 c-15 -3 -14 -12 6 -85 13 -45 39 -143 59 -217 19 -74 57
-216 83 -315 l48 -181 55 2 c69 2 67 2 67 17 0 6 36 153 79 326 84 337 80 331
109 196 3 -11 21 -81 40 -155 19 -74 49 -191 66 -260 l31 -125 53 0 c30 0 58
5 63 10 5 6 26 73 46 150 20 77 65 250 99 385 36 138 60 248 55 251 -8 5 -90
1 -94 -5 -1 0 -36 -143 -79 -316 -43 -173 -81 -318 -84 -322 -4 -4 -42 135
-85 310 -43 174 -81 321 -85 325 -10 10 -86 16 -99 8 -5 -3 -42 -136 -82 -296
-39 -159 -76 -305 -82 -324 -10 -33 -14 -22 -64 180 -65 258 -59 235 -85 339
-11 47 -25 89 -29 94 -9 9 -61 14 -91 8z"/>
<path d="M6323 6788 c-59 -28 -101 -72 -131 -137 -23 -49 -26 -69 -26 -156 0
-87 3 -107 26 -155 29 -64 72 -110 126 -136 55 -28 193 -26 247 3 96 51 150
158 149 298 -1 125 -57 229 -149 278 -58 30 -184 33 -242 5z m194 -85 c25 -12
47 -34 63 -63 22 -39 25 -57 25 -140 0 -109 -18 -164 -65 -199 -76 -56 -188
-39 -237 35 -19 30 -43 134 -38 167 2 12 6 42 9 67 11 80 58 134 129 149 44
10 70 6 114 -16z"/>
<path d="M8092 6795 c-116 -36 -172 -143 -126 -241 14 -29 68 -74 99 -81 5 -1
49 -11 97 -22 128 -29 148 -42 148 -97 0 -20 -9 -39 -26 -55 -23 -22 -34 -24
-113 -24 -77 0 -93 3 -152 33 -37 17 -68 32 -70 32 -7 0 -3 -96 4 -107 15 -24
122 -48 212 -47 102 1 166 24 210 75 26 32 45 88 40 116 -2 10 -6 30 -10 45
-6 32 -47 74 -90 92 -16 7 -61 19 -100 26 -123 23 -155 41 -161 95 -6 65 87
104 197 80 42 -9 121 -45 131 -59 4 -6 8 17 8 50 l0 61 -57 19 c-71 22 -184
27 -241 9z"/>
<path d="M6874 6786 c-2 -6 -3 -142 -2 -301 l3 -290 45 0 45 0 3 209 c2 141 6
214 14 224 28 33 109 63 171 64 34 0 68 -1 76 -3 10 -3 14 8 15 39 1 24 -2 48
-5 54 -4 6 -31 11 -62 11 -54 0 -129 -28 -184 -69 -23 -16 -23 -16 -23 25 0
22 -3 41 -7 42 -42 6 -86 3 -89 -5z"/>
<path d="M1935 6454 c-117 -20 -122 -22 -202 -50 -421 -146 -736 -553 -790
-1015 -9 -85 -10 -267 0 -353 8 -82 49 -220 84 -291 88 -174 221 -289 393
-340 63 -19 249 -27 325 -15 95 16 110 20 184 45 278 94 590 385 532 494 -16
29 -22 27 -53 -22 -106 -166 -337 -315 -533 -342 -315 -44 -553 135 -639 480
-43 173 -39 436 9 627 111 436 416 687 809 665 168 -10 327 -81 372 -169 16
-31 21 -91 9 -126 -5 -19 -2 -22 23 -22 43 0 63 29 140 197 l70 152 -27 10
c-204 77 -508 109 -706 75z"/>
<path d="M4960 5818 c-226 -86 -496 -424 -584 -731 -75 -258 -45 -466 86 -595
65 -65 118 -85 218 -85 153 -1 268 59 430 222 113 114 162 188 153 233 -4 22
-30 46 -38 36 -1 -2 -16 -29 -34 -60 -60 -106 -154 -194 -241 -224 -200 -69
-345 22 -389 244 -17 83 -16 89 25 97 20 3 44 10 53 15 9 4 51 23 94 41 133
55 274 158 376 275 107 122 153 231 155 365 0 86 -19 129 -71 165 -45 30 -158
31 -233 2z m40 -184 c59 -24 84 -70 83 -156 -2 -201 -207 -370 -444 -365 l-74
2 -1 40 c-2 106 90 325 173 409 26 27 66 57 88 67 50 23 122 24 175 3z"/>
<path d="M6084 5822 c-206 -72 -443 -346 -569 -656 -55 -138 -80 -364 -51
-474 32 -121 101 -214 194 -259 49 -24 68 -28 142 -27 101 1 171 25 272 91
126 83 308 287 308 345 0 23 -17 58 -29 58 -5 0 -25 -29 -46 -65 -72 -123
-168 -203 -277 -231 -187 -48 -330 60 -354 269 -3 28 -7 56 -8 60 0 4 35 21
79 36 182 65 303 140 434 271 142 141 208 282 199 425 -6 84 -31 134 -79 157
-44 22 -154 21 -215 0z m35 -190 c60 -30 76 -62 76 -155 -1 -69 -5 -90 -27
-132 -68 -132 -232 -228 -395 -234 -90 -3 -104 3 -98 45 20 159 103 344 191
425 73 68 178 89 253 51z"/>
<path d="M6868 5807 c-138 -77 -279 -226 -312 -330 -7 -23 10 -67 26 -67 7 0
22 19 33 42 35 73 102 156 144 178 50 25 73 25 96 0 16 -18 17 -32 12 -122 -4
-57 -8 -112 -11 -123 -2 -11 -7 -51 -10 -90 -4 -38 -9 -86 -11 -105 -3 -19 -7
-57 -10 -85 -2 -27 -7 -66 -10 -85 -2 -19 -7 -62 -11 -95 -3 -33 -7 -76 -9
-95 -7 -69 -15 -146 -20 -180 -3 -19 -7 -55 -9 -80 -3 -25 -8 -69 -11 -97 -5
-36 -3 -53 4 -53 14 0 194 61 203 69 6 6 12 50 23 176 3 33 8 71 10 85 2 14 7
52 11 85 18 178 81 345 192 510 105 156 213 246 312 258 19 2 58 -2 85 -9 l50
-13 83 87 c45 48 92 99 102 114 l20 26 -37 14 c-21 7 -78 13 -128 13 -83 0
-96 -3 -159 -35 -126 -63 -280 -231 -399 -435 -22 -38 -49 -83 -59 -100 l-19
-30 5 40 c3 22 8 72 12 110 3 39 8 79 10 90 3 11 7 74 10 140 5 96 3 127 -10
156 -33 77 -112 91 -208 36z"/>
<path d="M8081 5824 c-82 -35 -225 -159 -268 -231 -33 -56 -36 -83 -14 -116
l18 -28 33 57 c56 100 131 164 191 164 42 0 71 -65 83 -185 3 -22 7 -115 11
-206 3 -92 8 -191 10 -220 2 -30 6 -119 10 -199 9 -201 13 -246 31 -315 25
-101 69 -144 140 -141 117 6 333 224 500 506 32 54 59 98 60 97 1 -1 -11 -68
-26 -149 -16 -80 -31 -161 -34 -180 -3 -18 -14 -76 -25 -128 -11 -52 -23 -111
-26 -130 -5 -30 -49 -246 -60 -290 -70 -306 -173 -526 -291 -620 -109 -88
-199 -115 -379 -115 -126 1 -148 3 -215 27 l-75 27 -29 -32 c-16 -18 -56 -61
-88 -96 -32 -35 -56 -67 -53 -71 3 -4 22 -11 42 -15 21 -5 45 -11 53 -13 28
-10 250 -10 298 0 230 47 412 148 594 329 102 102 164 189 228 317 110 223
146 351 260 927 77 389 77 388 85 425 12 57 16 79 30 150 8 41 17 89 20 105
12 64 57 243 76 299 10 33 17 61 15 63 -2 2 -59 -16 -127 -40 -134 -48 -129
-43 -144 -137 -19 -122 -62 -307 -87 -380 -91 -262 -310 -583 -423 -620 -107
-35 -130 31 -150 415 -17 345 -25 484 -30 515 -14 96 -20 121 -41 166 -18 37
-34 57 -58 68 -42 20 -100 20 -145 0z"/>
</g>
</svg>
