<?xml version="1.0" encoding="UTF-8"?>
<svg width="837px" height="384px" viewBox="0 0 837 384" xmlns="http://www.w3.org/2000/svg" xmlns:xlink="http://www.w3.org/1999/xlink" version="1.1">
 <!-- Generated by Pixelmator Pro 1.6.4 -->
 <path id="Works" d="M748.44 67.156 C748.44 72.619 746.181 77.1 741.664 80.599 737.148 84.099 730.979 85.848 723.159 85.848 718.732 85.848 714.67 85.322 710.974 84.268 707.279 83.215 704.181 82.063 701.682 80.814 L701.682 69.512 702.217 69.512 C705.395 71.905 708.93 73.806 712.822 75.217 716.714 76.627 720.446 77.332 724.016 77.332 728.444 77.332 731.908 76.618 734.407 75.19 736.906 73.762 738.156 71.512 738.156 68.441 738.156 66.085 737.478 64.299 736.121 63.085 734.764 61.871 732.157 60.836 728.301 59.979 726.873 59.657 725.007 59.282 722.704 58.854 720.401 58.425 718.303 57.961 716.411 57.461 711.162 56.069 707.439 54.025 705.244 51.329 703.048 48.633 701.95 45.321 701.95 41.393 701.95 38.93 702.458 36.609 703.476 34.43 704.494 32.252 706.038 30.306 708.109 28.592 710.109 26.914 712.653 25.584 715.741 24.602 718.83 23.62 722.285 23.129 726.105 23.129 729.676 23.129 733.291 23.567 736.951 24.442 740.611 25.316 743.655 26.379 746.083 27.628 L746.083 38.394 745.548 38.394 C742.977 36.501 739.852 34.904 736.174 33.6 732.497 32.297 728.89 31.645 725.355 31.645 721.678 31.645 718.571 32.351 716.036 33.761 713.501 35.171 712.233 37.269 712.233 40.054 712.233 42.518 713.001 44.375 714.536 45.625 716.036 46.874 718.464 47.892 721.82 48.677 723.677 49.106 725.757 49.534 728.06 49.963 730.363 50.391 732.282 50.784 733.818 51.141 738.495 52.212 742.102 54.051 744.637 56.658 747.172 59.3 748.44 62.8 748.44 67.156 Z M695.094 84.402 L681.811 84.402 657.816 58.211 651.282 64.424 651.282 84.402 641.212 84.402 641.212 1.063 651.282 1.063 651.282 54.516 680.365 24.575 693.059 24.575 665.261 52.212 Z M631.304 35.555 L630.768 35.555 C629.268 35.198 627.813 34.939 626.403 34.779 624.992 34.618 623.323 34.538 621.395 34.538 618.289 34.538 615.289 35.225 612.397 36.6 609.505 37.974 606.72 39.751 604.042 41.929 L604.042 84.402 593.972 84.402 593.972 24.575 604.042 24.575 604.042 33.413 C608.041 30.199 611.567 27.923 614.62 26.584 617.673 25.245 620.788 24.575 623.966 24.575 625.716 24.575 626.983 24.62 627.769 24.709 628.554 24.799 629.733 24.968 631.304 25.218 Z M578.386 54.516 C578.386 64.264 575.887 71.958 570.888 77.6 565.889 83.242 559.194 86.063 550.803 86.063 542.34 86.063 535.618 83.242 530.637 77.6 525.656 71.958 523.166 64.264 523.166 54.516 523.166 44.768 525.656 37.064 530.637 31.404 535.618 25.745 542.34 22.915 550.803 22.915 559.194 22.915 565.889 25.745 570.888 31.404 575.887 37.064 578.386 44.768 578.386 54.516 Z M567.996 54.516 C567.996 46.767 566.478 41.009 563.443 37.242 560.408 33.475 556.194 31.592 550.803 31.592 545.34 31.592 541.099 33.475 538.082 37.242 535.065 41.009 533.556 46.767 533.556 54.516 533.556 62.014 535.074 67.7 538.109 71.574 541.144 75.449 545.375 77.386 550.803 77.386 556.159 77.386 560.363 75.467 563.416 71.628 566.469 67.79 567.996 62.085 567.996 54.516 Z M517.917 4.651 L497.189 84.402 485.245 84.402 468.481 18.202 452.091 84.402 440.415 84.402 419.313 4.651 430.185 4.651 446.95 70.959 463.446 4.651 474.212 4.651 490.869 71.601 507.526 4.651 Z" fill="#fff2cc" fill-opacity="1" stroke="none"/>
 <path id="Cheery" d="M686.959 383.193 C680.318 383.193 672.848 381.729 664.547 378.799 L682.564 359.023 C691.744 363.125 701.314 365.176 711.275 365.176 731.588 365.176 746.822 358.584 756.979 345.4 767.135 332.217 775.631 308.047 782.467 272.891 L796.236 201.699 C786.373 219.668 776.047 234.512 765.256 246.23 754.465 257.949 745.65 263.809 738.814 263.809 729.439 263.809 724.264 253.945 723.287 234.219 L722.262 213.857 720.357 172.402 719.918 160.537 C719.039 144.814 716.158 136.953 711.275 136.953 703.658 136.953 696.236 144.18 689.01 158.633 686.471 156.875 685.201 154.971 685.201 152.92 685.201 147.646 689.937 140.811 699.41 132.412 708.883 124.014 716.598 119.814 722.555 119.814 728.707 119.814 733.053 122.574 735.592 128.092 738.131 133.609 739.791 143.789 740.572 158.633 L743.209 209.902 C744.186 229.434 747.311 239.199 752.584 239.199 760.494 239.199 770.309 230.141 782.027 212.025 793.746 193.91 801.266 176.113 804.586 158.633 L810.299 128.75 836.373 119.668 C833.053 128.262 829.635 141.25 826.119 158.633 L806.49 256.924 C798.775 295.401 786.861 323.818 770.748 342.178 746.627 369.522 718.697 383.193 686.959 383.193 Z M581.93 262.637 L582.369 258.242 583.395 248.721 584.566 239.199 592.184 169.473 593.063 161.855 C593.746 156.094 594.088 151.406 594.088 147.793 594.088 141.836 592.428 138.857 589.107 138.857 581.295 138.857 573.531 147.207 565.816 163.906 563.375 162.051 562.203 160.146 562.301 158.193 562.594 152.236 568.039 144.352 578.635 134.537 589.231 124.723 597.603 119.814 603.756 119.814 612.057 119.814 616.207 125.283 616.207 136.221 616.207 138.857 615.963 142.422 615.475 146.914 L614.449 157.168 613.131 169.473 611.813 181.484 C633.492 140.371 654.83 119.814 675.826 119.814 681.295 119.814 686.764 121.084 692.232 123.623 L671.578 146.182 C668.453 144.424 664.449 143.545 659.566 143.545 649.41 143.545 638.691 151.773 627.412 168.229 616.133 184.684 609.518 201.797 607.564 219.57 L603.609 255.313 581.93 262.637 Z M541.5 213.418 C543.941 215.078 545.162 217.031 545.162 219.277 545.162 222.305 542.037 227.48 535.787 234.805 519.088 254.141 502.584 263.809 486.275 263.809 476.314 263.809 468.111 259.854 461.666 251.943 455.221 244.033 451.998 233.926 451.998 221.621 451.998 199.355 460.421 176.821 477.267 154.019 494.112 131.216 510.787 119.814 527.291 119.814 539.205 119.814 545.162 126.211 545.162 139.004 545.162 153.359 538.204 167.373 524.288 181.045 510.372 194.717 493.404 204.238 473.385 209.609 475.338 233.145 484.615 244.912 501.217 244.912 517.623 244.912 531.051 234.414 541.5 213.418 Z M473.971 191.738 C476.803 192.715 479.391 193.203 481.734 193.203 493.844 193.203 504.439 189.492 513.521 182.07 522.604 174.648 527.145 165.957 527.145 155.996 527.145 144.57 521.334 138.857 509.713 138.857 501.314 138.857 493.722 143.862 486.935 153.872 480.147 163.882 475.826 176.504 473.971 191.738 Z M430.025 213.418 C432.467 215.078 433.688 217.031 433.688 219.277 433.688 222.305 430.563 227.48 424.313 234.805 407.613 254.141 391.109 263.809 374.801 263.809 364.84 263.809 356.637 259.854 350.191 251.943 343.746 244.033 340.523 233.926 340.523 221.621 340.523 199.355 348.946 176.821 365.792 154.019 382.638 131.216 399.312 119.814 415.816 119.814 427.731 119.814 433.688 126.211 433.688 139.004 433.688 153.359 426.73 167.373 412.813 181.045 398.897 194.717 381.93 204.238 361.91 209.609 363.863 233.145 373.141 244.912 389.742 244.912 406.149 244.912 419.576 234.414 430.025 213.418 Z M362.496 191.738 C365.328 192.715 367.916 193.203 370.26 193.203 382.369 193.203 392.965 189.492 402.047 182.07 411.129 174.648 415.67 165.957 415.67 155.996 415.67 144.57 409.859 138.857 398.238 138.857 389.84 138.857 382.247 143.862 375.46 153.872 368.673 163.882 364.352 176.504 362.496 191.738 Z M219.527 179.141 C230.953 161.953 243.526 147.769 257.247 136.587 270.968 125.405 282.711 119.814 292.477 119.814 301.949 119.814 306.686 126.406 306.686 139.59 306.686 143.496 306.1 149.502 304.928 157.607 L297.164 212.246 C295.602 223.184 294.82 231.826 294.82 238.174 294.82 243.252 296.188 245.791 298.922 245.791 305.66 245.791 313.912 236.807 323.678 218.838 326.119 220.303 327.34 221.816 327.34 223.379 327.34 229.727 321.896 238.052 311.007 248.354 300.118 258.657 291.256 263.809 284.42 263.809 276.803 263.809 272.994 258.34 272.994 247.402 272.994 239.395 274.02 228.311 276.07 214.15 L281.051 178.701 C282.711 167.08 283.541 157.852 283.541 151.016 283.541 143.496 280.855 139.736 275.484 139.736 262.984 139.736 250.338 148.208 237.545 165.151 224.752 182.095 217.232 200.283 214.986 219.717 L211.178 254.873 189.352 263.809 189.791 259.707 190.963 248.867 192.135 238.613 206.344 110.293 C209.762 80.019 220.992 54.165 240.035 32.729 259.078 11.294 280.367 0.576 303.902 0.576 308.785 0.576 313.521 1.113 318.111 2.188 L296.578 23.281 C291.012 21.621 285.738 20.791 280.758 20.791 251.754 20.791 234.713 43.447 229.635 88.76 Z M150.533 208.877 C152.779 209.951 153.902 211.514 153.902 213.564 153.902 220.01 147.994 228.506 136.178 239.053 116.158 256.924 93.404 265.859 67.916 265.859 47.31 265.859 30.88 258.413 18.624 243.521 6.368 228.628 0.24 208.633 0.24 183.535 0.24 147.695 11.715 117.666 34.664 93.447 57.613 69.228 86.08 57.119 120.064 57.119 137.35 57.119 155.269 60.391 173.824 66.934 L164.01 88.467 161.227 94.766 C158.883 99.746 156.002 102.236 152.584 102.236 151.9 102.236 150.875 102.09 149.508 101.797 150.875 98.77 151.559 96.279 151.559 94.326 151.559 87.783 147.189 82.07 138.448 77.188 129.708 72.305 119.527 69.863 107.906 69.863 84.078 69.863 64.718 79.287 49.825 98.135 34.933 116.983 27.486 141.494 27.486 171.67 27.486 195.01 32.711 213.613 43.16 227.48 53.609 241.348 67.574 248.281 85.055 248.281 97.652 248.281 110.226 244.497 122.774 236.929 135.323 229.36 144.576 220.01 150.533 208.877 Z" fill="#ffffff" fill-opacity="1" stroke="none"/>
</svg>
